<?xml version="1.0" encoding="UTF-8" standalone="no"?>
<!-- Created with Inkscape (http://www.inkscape.org/) -->

<svg
   xmlns:dc="http://purl.org/dc/elements/1.1/"
   xmlns:cc="http://creativecommons.org/ns#"
   xmlns:rdf="http://www.w3.org/1999/02/22-rdf-syntax-ns#"
   xmlns:svg="http://www.w3.org/2000/svg"
   xmlns="http://www.w3.org/2000/svg"
   xmlns:xlink="http://www.w3.org/1999/xlink"
   xmlns:sodipodi="http://sodipodi.sourceforge.net/DTD/sodipodi-0.dtd"
   xmlns:inkscape="http://www.inkscape.org/namespaces/inkscape"
   width="48"
   height="48"
   viewBox="0 0 48 48"
   version="1.1"
   id="svg8"
   inkscape:version="0.92.4 5da689c313, 2019-01-14"
   sodipodi:docname="icon-logo.svg">
  <defs
     id="defs2">
    <linearGradient
       inkscape:collect="always"
       id="linearGradient845">
      <stop
         style="stop-color:#606353;stop-opacity:1;"
         offset="0"
         id="stop841" />
      <stop
         style="stop-color:#eff7ce;stop-opacity:1"
         offset="1"
         id="stop843" />
    </linearGradient>
    <linearGradient
       inkscape:collect="always"
       id="linearGradient837">
      <stop
         style="stop-color:#40452c;stop-opacity:1;"
         offset="0"
         id="stop833" />
      <stop
         style="stop-color:#40452c;stop-opacity:0.50666666"
         offset="1"
         id="stop835" />
    </linearGradient>
    <linearGradient
       inkscape:collect="always"
       xlink:href="#linearGradient837"
       id="linearGradient839"
       x1="4.0965137"
       y1="287.87186"
       x2="8.3389053"
       y2="292.63434"
       gradientUnits="userSpaceOnUse"
       gradientTransform="matrix(3.7714581,0,0,3.7795351,0.55016969,-1074.0218)" />
    <linearGradient
       inkscape:collect="always"
       xlink:href="#linearGradient845"
       id="linearGradient847"
       x1="11.520699"
       y1="295.80936"
       x2="0.91472059"
       y2="285.22604"
       gradientUnits="userSpaceOnUse"
       gradientTransform="matrix(3.7714581,0,0,3.7795351,0.55016969,-1074.0218)" />
  </defs>
  <sodipodi:namedview
     id="base"
     pagecolor="#1f1f1f"
     bordercolor="#666666"
     borderopacity="1.0"
     inkscape:pageopacity="0"
     inkscape:pageshadow="2"
     inkscape:zoom="11.313708"
     inkscape:cx="17.600095"
     inkscape:cy="16.592963"
     inkscape:document-units="px"
     inkscape:current-layer="layer2"
     showgrid="true"
     units="px"
     inkscape:snap-smooth-nodes="true"
     showguides="false"
     showborder="true"
     inkscape:window-width="1920"
     inkscape:window-height="1024"
     inkscape:window-x="0"
     inkscape:window-y="0"
     inkscape:window-maximized="1">
    <inkscape:grid
       type="xygrid"
       id="grid815"
       empspacing="4"
       originy="0"
       originx="0" />
  </sodipodi:namedview>
  <metadata
     id="metadata5">
    <rdf:RDF>
      <cc:Work
         rdf:about="">
        <dc:format>image/svg+xml</dc:format>
        <dc:type
           rdf:resource="http://purl.org/dc/dcmitype/StillImage" />
        <dc:title></dc:title>
      </cc:Work>
    </rdf:RDF>
  </metadata>
  <g
     inkscape:label="Layer 1"
     inkscape:groupmode="layer"
     id="layer1">
    <circle
       style="opacity:1;fill:url(#linearGradient847);fill-opacity:1;stroke:#010000;stroke-width:1;stroke-linecap:square;stroke-linejoin:miter;stroke-miterlimit:4;stroke-dasharray:none;stroke-dashoffset:0;stroke-opacity:0.07999998"
       id="path825"
       cx="24"
       cy="24"
       r="20" />
    <circle
       style="opacity:1;fill:#e0e4d7;fill-opacity:1;stroke:#010000;stroke-width:1;stroke-linecap:square;stroke-linejoin:miter;stroke-miterlimit:4;stroke-dasharray:none;stroke-dashoffset:0;stroke-opacity:0.18222225"
       id="path827"
       cx="24"
       cy="24"
       r="16" />
    <path
       style="opacity:1;fill:url(#linearGradient839);fill-opacity:1;stroke:none;stroke-width:1;stroke-linecap:square;stroke-linejoin:miter;stroke-miterlimit:4;stroke-dasharray:none;stroke-dashoffset:0;stroke-opacity:1"
       d="m 16,32 h 16 c -1,-2 -4,-4 -6,-5 v -3 c 3,0 4,-2 4,-5 0,-3 -3,-5 -6,-5 -3,0 -6,2 -6,5 0,3 1,5 4,5 v 3 c -2,1 -5,3 -6,5 z"
       id="path831"
       inkscape:connector-curvature="0"
       sodipodi:nodetypes="ccccsssccc" />
  </g>
  <g
     inkscape:groupmode="layer"
     id="layer2"
     inkscape:label="Layer 2"
     style="display:inline">
    <path
       style="opacity:1;fill:#f0c812;fill-opacity:1;stroke:#7f753f;stroke-width:0.5;stroke-linecap:round;stroke-linejoin:round;stroke-miterlimit:4;stroke-dasharray:none;stroke-dashoffset:0;stroke-opacity:1"
       d="m 42.482422,11.378906 -2.960938,0.740235 A 17,17 0 0 1 41,19 17,17 0 0 1 39.53125,25.882812 l 2.943359,0.736329 A 20,20 0 0 0 44,19 20,20 0 0 0 42.482422,11.378906 Z m -36.9570314,0.002 A 20,20 0 0 0 4,19 20,20 0 0 0 5.5175781,26.621094 L 8.4785156,25.880859 A 17,17 0 0 1 7,19 17,17 0 0 1 8.46875,12.117188 Z m 5.9042974,1.476563 A 14,14 0 0 0 10,19 a 14,14 0 0 0 1.4375,6.140625 l 2.990234,-0.748047 A 11,11 0 0 1 13,19 11,11 0 0 1 14.419922,13.605469 Z m 25.132812,0.002 -2.990234,0.748047 A 11,11 0 0 1 35,19 11,11 0 0 1 33.580078,24.394531 l 2.990234,0.748047 A 14,14 0 0 0 38,19 14,14 0 0 0 36.5625,12.859375 Z M 17.486328,14.371094 A 8,8 0 0 0 16,19 a 8,8 0 0 0 1.482422,4.628906 l 3.28125,-0.820312 A 5,5 0 0 1 19,19 5,5 0 0 1 20.769531,15.191406 Z m 13.03125,0 -3.28125,0.820312 A 5,5 0 0 1 29,19 5,5 0 0 1 27.230469,22.808594 l 3.283203,0.820312 A 8,8 0 0 0 32,19 8,8 0 0 0 30.517578,14.371094 Z M 24,17 a 2,2 0 0 0 -2,2 2,2 0 0 0 2,2 2,2 0 0 0 2,-2 2,2 0 0 0 -2,-2 z"
       id="path850"
       inkscape:connector-curvature="0" />
  </g>
</svg>
